<svg width="27" height="28" viewBox="0 0 27 28" fill="none" xmlns="http://www.w3.org/2000/svg">
<g clip-path="url(#clip0_1607_2190)">
<path d="M20.6862 9.08585V5.79899C21.5443 5.39394 22.1452 4.52562 22.1452 3.51888V3.44259C22.1452 2.05281 21.0079 0.915509 19.6181 0.915509H19.5426C18.1528 0.915509 17.0155 2.05281 17.0155 3.44259V3.51888C17.0155 4.52641 17.6164 5.39394 18.4745 5.79899V9.08585C17.1972 9.28326 16.03 9.81023 15.0673 10.5849L6.0436 3.56528C6.10259 3.33641 6.14427 3.10124 6.14506 2.85427C6.14585 1.27967 4.87169 0.00236282 3.29708 3.26985e-06C1.72247 -0.00235628 0.445171 1.27259 0.442812 2.84719C0.441238 4.4218 1.7154 5.6991 3.29 5.70146C3.80281 5.70146 4.27787 5.55674 4.69393 5.32L13.5706 12.2248C12.8155 13.3645 12.3735 14.7291 12.3735 16.1983C12.3735 17.6675 12.8596 19.1596 13.6807 20.3299L10.9813 23.0292C10.7682 22.9655 10.5464 22.9207 10.312 22.9207C9.0182 22.9207 7.96978 23.9691 7.96978 25.2629C7.96978 26.5567 9.01899 27.6052 10.312 27.6052C11.6051 27.6052 12.6543 26.5567 12.6543 25.2629C12.6543 25.0285 12.6094 24.8067 12.5457 24.5936L15.216 21.9234C16.428 22.8483 17.9373 23.4044 19.5803 23.4044C23.5601 23.4044 26.7864 20.1781 26.7864 16.1983C26.7864 12.5953 24.1398 9.6191 20.6862 9.08585ZM19.5795 19.8926C17.5393 19.8926 15.8845 18.2385 15.8845 16.1983C15.8845 14.1581 17.5385 12.504 19.5795 12.504C21.6206 12.504 23.2738 14.1581 23.2738 16.1983C23.2738 18.2385 21.6198 19.8926 19.5795 19.8926Z" fill="#FF4800"/>
</g>
<defs>
<clipPath id="clip0_1607_2190">
<rect width="27" height="28" fill="white"/>
</clipPath>
</defs>
</svg>
